<svg xmlns="http://www.w3.org/2000/svg" viewBox="0 0 1200 675" role="img" aria-labelledby="t d">
  <title id="t">Campeonato Brasileiro de Rally Baja 2026</title><desc id="d">Arte editorial TVDUASRODAS com dunas, navegação e motocicleta de rally.</desc>
  <defs><linearGradient id="g" x2="1" y2="1"><stop stop-color="#101724"/><stop offset=".55" stop-color="#5d331c"/><stop offset="1" stop-color="#b45a22"/></linearGradient><linearGradient id="a"><stop stop-color="#ffd466"/><stop offset="1" stop-color="#ff5427"/></linearGradient></defs>
  <rect width="1200" height="675" fill="url(#g)"/><circle cx="965" cy="145" r="82" fill="#ffd276" opacity=".72"/><path d="M0 440c250-105 390 85 635-18s365-54 565 15v238H0Z" fill="#ffd08b" opacity=".2"/><path d="M0 530c300-160 530 80 760-62s320-60 440-12" fill="none" stroke="url(#a)" stroke-width="15"/>
  <g transform="translate(785 345)" fill="none" stroke="#fff" stroke-width="14"><circle cx="0" cy="130" r="65"/><circle cx="220" cy="130" r="65"/><path d="m0 130 95-130 125 130H0l118-63 102 63M93 0h72l35 52"/></g>
  <text x="72" y="105" fill="#ffd178" font-family="Arial,sans-serif" font-size="25" font-weight="800" letter-spacing="6">TVDUASRODAS • 2026</text><text x="72" y="215" fill="#fff" font-family="Arial,sans-serif" font-size="70" font-weight="900">RALLY BAJA</text><text x="76" y="275" fill="#ffe0b2" font-family="Arial,sans-serif" font-size="30" font-weight="800" letter-spacing="7">CAMPEONATO BRASILEIRO</text>
</svg>
