<svg xmlns="http://www.w3.org/2000/svg" width="1600" height="900" viewBox="0 0 1600 900" role="img" aria-labelledby="title desc">
  <title id="title">Custo real de uma motocicleta</title>
  <desc id="desc">Ilustração editorial com uma motocicleta, uma calculadora e os grupos de custos aquisição, uso, manutenção, proteção e documentos.</desc>
  <defs>
    <linearGradient id="bg" x1="0" y1="0" x2="1" y2="1">
      <stop offset="0" stop-color="#07162b"/>
      <stop offset="1" stop-color="#113d55"/>
    </linearGradient>
    <linearGradient id="accent" x1="0" y1="0" x2="1" y2="0">
      <stop offset="0" stop-color="#ffcf33"/>
      <stop offset="1" stop-color="#ff7a28"/>
    </linearGradient>
  </defs>
  <rect width="1600" height="900" fill="url(#bg)"/>
  <circle cx="1310" cy="115" r="260" fill="#1b5369" opacity=".48"/>
  <circle cx="185" cy="850" r="330" fill="#0d2d49" opacity=".75"/>
  <text x="100" y="120" fill="#9eddec" font-family="Arial, sans-serif" font-size="30" font-weight="700" letter-spacing="5">GUIA TVDUASRODAS</text>
  <text x="100" y="220" fill="#ffffff" font-family="Arial, sans-serif" font-size="78" font-weight="800">CUSTO REAL</text>
  <text x="100" y="300" fill="#ffffff" font-family="Arial, sans-serif" font-size="78" font-weight="800">DA MOTO</text>
  <rect x="100" y="338" width="560" height="12" rx="6" fill="url(#accent)"/>
  <text x="100" y="405" fill="#d8eef4" font-family="Arial, sans-serif" font-size="33">A conta que começa depois do preço</text>
  <g transform="translate(820 165)">
    <rect x="0" y="0" width="590" height="570" rx="40" fill="#f5f8f9"/>
    <rect x="55" y="55" width="480" height="90" rx="18" fill="#0d263b"/>
    <text x="500" y="116" text-anchor="end" fill="#ffcf33" font-family="Arial, sans-serif" font-size="48" font-weight="700">R$/MÊS</text>
    <g fill="#dce7eb">
      <rect x="55" y="180" width="135" height="78" rx="14"/><rect x="228" y="180" width="135" height="78" rx="14"/><rect x="400" y="180" width="135" height="78" rx="14"/>
      <rect x="55" y="285" width="135" height="78" rx="14"/><rect x="228" y="285" width="135" height="78" rx="14"/><rect x="400" y="285" width="135" height="78" rx="14"/>
      <rect x="55" y="390" width="135" height="78" rx="14"/><rect x="228" y="390" width="135" height="78" rx="14"/>
    </g>
    <rect x="400" y="390" width="135" height="130" rx="14" fill="#ff9e2c"/>
    <text x="467" y="466" text-anchor="middle" fill="#10283b" font-family="Arial, sans-serif" font-size="48" font-weight="800">=</text>
    <text x="122" y="231" text-anchor="middle" fill="#17384b" font-family="Arial, sans-serif" font-size="24" font-weight="700">COMPRA</text>
    <text x="295" y="231" text-anchor="middle" fill="#17384b" font-family="Arial, sans-serif" font-size="24" font-weight="700">USO</text>
    <text x="467" y="231" text-anchor="middle" fill="#17384b" font-family="Arial, sans-serif" font-size="22" font-weight="700">SEGURO</text>
    <text x="122" y="336" text-anchor="middle" fill="#17384b" font-family="Arial, sans-serif" font-size="21" font-weight="700">REVISÃO</text>
    <text x="295" y="336" text-anchor="middle" fill="#17384b" font-family="Arial, sans-serif" font-size="20" font-weight="700">PNEUS</text>
    <text x="467" y="336" text-anchor="middle" fill="#17384b" font-family="Arial, sans-serif" font-size="19" font-weight="700">DOCS.</text>
  </g>
  <g transform="translate(105 520)" fill="none" stroke-linecap="round" stroke-linejoin="round">
    <circle cx="145" cy="190" r="92" stroke="#eef8fa" stroke-width="22"/>
    <circle cx="530" cy="190" r="92" stroke="#eef8fa" stroke-width="22"/>
    <path d="M145 190l115-130h135l135 130M260 60l74 130H145m189 0h196m-270-130l-55-55h-72m262 55l45-75h70" stroke="url(#accent)" stroke-width="25"/>
    <path d="M305 38h100" stroke="#eef8fa" stroke-width="26"/>
  </g>
  <text x="100" y="840" fill="#9eddec" font-family="Arial, sans-serif" font-size="25">Aquisição • combustível • manutenção • proteção • documentos</text>
</svg>
