<svg xmlns="http://www.w3.org/2000/svg" viewBox="0 0 1400 900" role="img" aria-labelledby="t d"><title id="t">Três limites para transportar bicicletas</title><desc id="d">Fluxo com manual do carro, capacidade do suporte e peso total das bicicletas.</desc><rect width="1400" height="900" fill="#f4f7f8"/><text x="90" y="105" font-family="Arial,sans-serif" font-size="50" font-weight="700" fill="#142633">CONFIRA OS TRÊS LIMITES</text><g font-family="Arial,sans-serif"><g transform="translate(90 190)"><rect width="350" height="430" rx="32" fill="#17394a"/><path d="M95 95h160v210H95zM125 135h100M125 180h100M125 225h70" fill="none" stroke="#fff" stroke-width="16"/><text x="175" y="365" text-anchor="middle" fill="#fff" font-size="31" font-weight="700">MANUAL DO CARRO</text></g><g transform="translate(525 190)"><rect width="350" height="430" rx="32" fill="#f47b20"/><path d="M75 155h200M105 105v220M245 105v220M80 280h190" fill="none" stroke="#fff" stroke-width="18"/><text x="175" y="365" text-anchor="middle" fill="#fff" font-size="31" font-weight="700">SUPORTE</text></g><g transform="translate(960 190)"><rect width="350" height="430" rx="32" fill="#228b7a"/><path d="M175 95v65M95 160h160l45 155H50z" fill="none" stroke="#fff" stroke-width="18"/><text x="175" y="365" text-anchor="middle" fill="#fff" font-size="31" font-weight="700">PESO TOTAL</text></g><text x="700" y="720" text-anchor="middle" fill="#142633" font-size="36" font-weight="700">VALE SEMPRE O LIMITE MAIS RESTRITIVO</text><text x="700" y="790" text-anchor="middle" fill="#536774" font-size="27">suporte + bicicletas + rodas e acessórios presos</text></g><text x="90" y="855" fill="#657985" font-family="Arial,sans-serif" font-size="23">Arte editorial TVDUASRODAS</text></svg>
