<?xml version="1.0" encoding="UTF-8"?>
<svg id="Layer_1" data-name="Layer 1" xmlns="http://www.w3.org/2000/svg" viewBox="0 0 1174.72 188">
  <defs>
    <style>
      .cls-1 {
        fill: #fff;
      }
    </style>
  </defs>
  <path class="cls-1" d="M624.48,29.57h37.41v45h-37.35l.08,61.32c0,2.2,1.78,3.98,3.98,3.98h33.3v45h-33.55c-27.49,0-49.77-22.46-49.77-49.95V0h45.87l.04,29.57ZM484.63,21.58c-45.95,0-83.21,37.25-83.21,83.21s37.25,83.21,83.21,83.21,83.21-37.25,83.21-83.21-37.25-83.21-83.21-83.21ZM484.63,143.54c-20.65,0-37.4-18.09-37.4-38.74s16.74-38.74,37.4-38.74,37.4,18.09,37.4,38.74-16.74,38.74-37.4,38.74ZM748.88,21.58c-45.95,0-83.21,37.25-83.21,83.21s37.25,83.21,83.21,83.21,83.21-37.25,83.21-83.21-37.25-83.21-83.21-83.21ZM748.88,143.54c-20.65,0-37.4-18.09-37.4-38.74s16.74-38.74,37.4-38.74,37.4,18.09,37.4,38.74-16.74,38.74-37.4,38.74ZM366.68,17.47c-17.54-9.12-38.8-5.59-52.3,8.36l-89.14,98.86c-1.83,1.9-5.05.61-5.05-2.03V57c0-24.61-19.88-44.57-44.49-44.57-12.36,0-24.99,4.93-32.51,13.26L0,184.89h66.04l99.68-110.8c1.83-1.9,5.04-.6,5.04,2.04v66.74c0,18.62,11.55,35.08,29.24,41.35,16.61,5.89,36.2.81,48.07-11.99l88.16-97.84c1.83-1.9,5.04-.6,5.04,2.04v108.46h49.43V57.01c0-16.52-9.15-31.82-24.02-39.54h0ZM1114.52,12.45h-183.71c-47.54,0-86.22,38.68-86.22,86.22s38.68,86.22,86.22,86.22h144.11v-51.79h42.05c32.07-1.29,57.75-27.95,57.75-60.33s-27.01-60.33-60.2-60.33ZM1005.84,64.24h-75.03c-18.99,0-34.43,15.45-34.43,34.43s15.45,34.43,34.43,34.43h40.22v-17.08h-40.22c-9.57,0-17.36-7.79-17.36-17.36s7.79-17.36,17.36-17.36h75.03v86.5h-75.03c-38.13,0-69.15-31.02-69.15-69.15s31.02-69.15,69.14-69.15h75.04s0,34.71,0,34.71ZM1114.51,116.03h-56.68v51.79h-34.92v-86.5h91.6c4.72,0,8.54-3.82,8.54-8.54s-3.82-8.54-8.54-8.54h-91.6V29.52h91.6c23.78,0,43.13,19.47,43.13,43.25s-19.35,43.25-43.13,43.25ZM1096.18,184.89h3.15v-14.05h5.39v-3.02h-13.9v3.02h5.36v14.05ZM1107.89,184.89h3.12v-11.88l3.88,6.51h2.56l3.9-6.66v12.02h3.12v-17.07h-3.29l-4.97,8.41-5.02-8.41h-3.29v17.07h0Z"/>
</svg>